/* XPM */
static char * sw_calculator_xpm[] = {
"48 48 17 1",
" 	c None",
".	c #93E8FE",
"+	c #10BCE8",
"@	c #E9FAFE",
"#	c #F8FDFF",
"$	c #D1F4FD",
"%	c #26C2EA",
"&	c #3DD8FF",
"*	c #54DDFF",
"=	c #A8EAFB",
"-	c #83DCF3",
";	c #4ACCEE",
">	c #B7EFFC",
",	c #34D6FF",
"'	c #00B7E6",
")	c #FFFFFF",
"!	c #000000",
"        ))))))))))))))))))))))))))))))))        ",
"      ))))))))))))))))))))))))))))))))))))      ",
"    ))))))))))))))))))))))))))))))))))))))))    ",
"   ))))))))))))))))))))))))))))))))))))))))))   ",
"  ))))))))))))))))))))))))))))))))))))))))))))  ",
"  ))))))))))))))))))))))))))))))))))))))))))))  ",
" )))))))))))))))))))))))))))))))))))))))))))))) ",
" )))))))))))))))))))))))))))))))))))))))))))))) ",
"))))))))))))))))))))))))))))))))))))))))))))))))",
"))))))))))))))))))))))))))))))))))))))))))))))))",
"))))))))))))))))))))#-%'+;$)))))))))))))))))))))",
")))))))))))))))))))$%'''''+>))))))))))))))))))))",
"))))))))))))))))))$+'''''''+$)))))))))))))))))))",
")))))))))))))))))@%'''''''''%)))))))))))))))))))",
"))))))))))))))))#;'''''''''''-))))))))))))))))))",
"))))))))))))))))-''''''''''''+@)))))))))))))))))",
")))))))))))))))>''''''''''''''-)))))))))))))))))",
"))))))))))))))$+''''''''''''''+@))))))))))))))))",
")))))))))))))@%''''''''''''''''-))))))))))))))))",
"))))))))))))@*'''''''''''''''''+#)))))))))))))))",
")))))))))))$&,''''''''''''''''''.)))))))))))))))",
")))))))))#.,,,''''''''''''''''''%#))))))))))))))",
")))))))@.&,,,,'''''''''''''''''''=))))))))))))))",
")#@$>.*,,,,,,,'''''''''''''''''''%#)))))))))))))",
",,,,,,,,,,,,,,''''''''''''''''''''>)))))))))))))",
",,,,,,,,,,,,,,''''''''''''''''''''*#))))))))))))",
",,,,,,,,,,,,,,'''''''''''''''''''',.))))))))))))",
",,,,,,,,,,,,,,'''''''''''''''''''',&@)))))))))))",
",,,,,,,,,,,,,,'''''''''''''''''''',,*)))))))))))",
",,,,,,,,,,,,,,'''''''''''''''''''',,,.))))))))))",
",,,,,,,,,,,,,,'''''''''''''''''''',,,,=)))))))))",
",,,,,,,,,,,,,,'''''''''''''''''''',,,,,>))))))))",
",,,,,,,,,,,,,,'''''''''''''''''''',,,,,,.#))))))",
",,,,,,,,,,,,,,'''''''''''''''''''',,,,,,,*$)))))",
",,,,,,,,,,,,,,'''''''''''''''''''',,,,,,,,,*.$@#",
",,,,,,,,,,,,,,'''''''''''''''''''',,,,,,,,,,,,,,",
",,,,,,,,,,,,,,'''''''''''''''''''',,,,,,,,,,,,,,",
",,,,,,,,,,,,,,'''''''''''''''''''',,,,,,,,,,,,,,",
",,,,,,,,,,,,,,'''''''''''''''''''',,,,,,,,,,,,,,",
",,,,,,,,,,,,,,'''''''''''''''''''',,,,,,,,,,,,,,",
" ,,,,,,,,,,,,,'''''''''''''''''''',,,,,,,,,,,,, ",
" ,,,,,,,,,,,,,'''''''''''''''''''',,,,,,,,,,,,, ",
"  ,,,,,,,,,,,,'''''''''''''''''''',,,,,,,,,,,,  ",
"  ,,,,,,,,,,,,'''''''''''''''''''',,,,,,,,,,,,  ",
"   ,,,,,,,,,,,'''''''''''''''''''',,,,,,,,,,,   ",
"    ,,,,,,,,,,'''''''''''''''''''',,,,,,,,,,    ",
"      ,,,,,,,,'''''''''''''''''''',,,,,,,,      ",
"        ,,,,,,'''''''''''''''''''',,,,,,        "};
