<svg width="128" height="128" viewBox="0 0 128 128" fill="none" xmlns="http://www.w3.org/2000/svg">
<path d="M108 32H20C15.5817 32 12 35.5817 12 40V108C12 112.418 15.5817 116 20 116H108C112.418 116 116 112.418 116 108V40C116 35.5817 112.418 32 108 32Z" fill="url(#paint0_linear_967_32)"/>
<mask id="mask0_967_32" style="mask-type:alpha" maskUnits="userSpaceOnUse" x="12" y="12" width="104" height="100">
<path d="M108 12H20C15.5817 12 12 15.5817 12 20V104C12 108.418 15.5817 112 20 112H108C112.418 112 116 108.418 116 104V20C116 15.5817 112.418 12 108 12Z" fill="white"/>
</mask>
<g mask="url(#mask0_967_32)">
<rect x="12" y="12" width="104" height="100" fill="#34D6FF"/>
<rect x="43" y="12" width="43" height="100" fill="#00B7E6"/>
<path d="M64 32C45.5 32 51 62 12 62V12H116V85.5C82.5 85.5 82.5 32 64 32Z" fill="white"/>
</g>
<defs>
<linearGradient id="paint0_linear_967_32" x1="12" y1="116" x2="116" y2="116" gradientUnits="userSpaceOnUse">
<stop stop-color="#2EBCE0"/>
<stop offset="0.0341569" stop-color="#71E2FF"/>
<stop offset="0.0771303" stop-color="#2EBCE0"/>
<stop offset="0.923458" stop-color="#2EBCE0"/>
<stop offset="0.966432" stop-color="#71E2FF"/>
<stop offset="1" stop-color="#2EBCE0"/>
</linearGradient>
</defs>
</svg>
